<svg width="20" height="20" viewBox="0 0 20 20" fill="none" xmlns="http://www.w3.org/2000/svg">
<path d="M10 0C4.47768 0 0 4.47768 0 10C0 15.5223 4.47768 20 10 20C15.5223 20 20 15.5223 20 10C20 4.47768 15.5223 0 10 0Z" fill="currentColor"/>
<path d="M7 15V5H9.81761C10.6226 5 11.3417 5.19918 11.9748 5.59753C12.6122 5.9913 13.109 6.55449 13.4654 7.28709C13.8218 8.01511 14 8.84386 14 9.77335V10.2335C14 11.163 13.8239 11.9895 13.4717 12.7129C13.1237 13.4364 12.631 13.9973 11.9937 14.3956C11.3564 14.794 10.6373 14.9954 9.83648 15H7ZM8.88679 6.66896V13.3448H9.79874C10.5367 13.3448 11.1006 13.0815 11.4906 12.5549C11.8805 12.0284 12.0797 11.2752 12.0881 10.2953V9.76648C12.0881 8.75 11.8952 7.98077 11.5094 7.45879C11.1237 6.93223 10.5597 6.66896 9.81761 6.66896H8.88679Z" fill="white"/>
</svg>
