<svg width="19" height="19" viewBox="0 0 19 19" fill="none" xmlns="http://www.w3.org/2000/svg">
<path d="M3.41487 15C3.46174 15 3.50862 14.9953 3.55549 14.9883L7.49768 14.2969C7.54456 14.2875 7.58909 14.2664 7.6219 14.2313L17.5571 4.29609C17.5788 4.27441 17.596 4.24866 17.6078 4.2203C17.6195 4.19195 17.6256 4.16156 17.6256 4.13086C17.6256 4.10016 17.6195 4.06977 17.6078 4.04142C17.596 4.01306 17.5788 3.98731 17.5571 3.96563L13.6617 0.0679688C13.6172 0.0234375 13.5586 0 13.4953 0C13.4321 0 13.3735 0.0234375 13.3289 0.0679688L3.39377 10.0031C3.35862 10.0383 3.33753 10.0805 3.32815 10.1273L2.63674 14.0695C2.61394 14.1951 2.62209 14.3243 2.66048 14.446C2.69887 14.5677 2.76634 14.6782 2.85706 14.768C3.01174 14.918 3.20628 15 3.41487 15ZM4.73941 10.6943L13.506 1.94116L15.6374 4.04142L6.8708 12.7945L4.14316 13.2657L4.73941 10.6943ZM18.75 16.9688H0L2.53916e-05 18.5625C2.53916e-05 18.6656 0.0844004 18.75 0.187525 18.75H18.5625C18.6656 18.75 18.75 18.6656 18.75 18.5625V16.9688C18.4813 16.9688 19.1649 16.9688 18.75 16.9688Z" fill="currentColor"/>
</svg>
