<svg width="24" height="20" viewBox="0 0 24 20" fill="none" xmlns="http://www.w3.org/2000/svg">
<path d="M22.5762 3.05451C22.8439 3.51144 23.0463 4.00363 23.1774 4.51673C23.3152 5.04705 23.3807 5.59354 23.3723 6.14141C23.3789 7.186 23.1039 8.21306 22.5762 9.11459C22.3163 9.58575 21.9865 10.0195 21.6014 10.3981L11.9995 20L2.3976 10.3981C2.01225 10.0157 1.67902 9.58414 1.40654 9.11459C1.15423 8.65783 0.957853 8.17234 0.821649 7.66862C0.691674 7.16984 0.626687 6.65644 0.626687 6.14141C0.618321 5.59355 0.6839 5.04706 0.821649 4.51673C1.08058 3.47241 1.62646 2.52133 2.3976 1.771C2.96141 1.20908 3.62908 0.762122 4.36347 0.455006C5.84168 -0.151669 7.49937 -0.151669 8.97758 0.455006C9.6717 0.748812 10.3094 1.16113 10.8622 1.67352L10.9435 1.771L11.9995 2.82705L13.0555 1.771L13.1368 1.67352C13.6896 1.16113 14.3273 0.748812 15.0214 0.455006C16.4996 -0.151669 18.1573 -0.151669 19.6355 0.455006C20.3699 0.762122 21.0376 1.20908 21.6014 1.771C21.9903 2.14626 22.3191 2.57917 22.5762 3.05451Z" fill="currentColor"/>
</svg>
