<svg width="15" height="21" viewBox="0 0 15 21" fill="none" xmlns="http://www.w3.org/2000/svg">
<path d="M4.96351 9.73648C5.59645 10.3694 6.4549 10.725 7.35 10.725C7.79321 10.725 8.23208 10.6377 8.64156 10.4681C9.05103 10.2985 9.42309 10.0499 9.73649 9.73648C10.0499 9.42309 10.2985 9.05103 10.4681 8.64156C10.6377 8.23208 10.725 7.79321 10.725 7.35C10.725 6.45489 10.3694 5.59645 9.73649 4.96351C9.10355 4.33058 8.24511 3.975 7.35 3.975C6.4549 3.975 5.59645 4.33058 4.96351 4.96351C4.33058 5.59645 3.975 6.45489 3.975 7.35C3.975 8.24511 4.33058 9.10355 4.96351 9.73648ZM7.35 19.854C7.18866 19.6629 6.99759 19.433 6.78391 19.1698C6.10451 18.3326 5.19987 17.1613 4.29672 15.8227C3.39213 14.482 2.4983 12.987 1.83289 11.5018C1.16308 10.0066 0.75 8.57637 0.75 7.35C0.75 5.59957 1.44536 3.92084 2.6831 2.6831C3.92084 1.44536 5.59957 0.75 7.35 0.75C9.10043 0.75 10.7792 1.44536 12.0169 2.68309C13.2546 3.92084 13.95 5.59957 13.95 7.35C13.95 8.57637 13.5369 10.0066 12.8671 11.5018C12.2017 12.987 11.3079 14.482 10.4033 15.8227C9.50013 17.1613 8.59549 18.3326 7.91609 19.1698C7.70241 19.433 7.51134 19.6629 7.35 19.854Z" fill="white" stroke="currentColor" stroke-width="1.5"/>
</svg>
