<svg width="20" height="21" viewBox="0 0 20 21" fill="none" xmlns="http://www.w3.org/2000/svg">
<path d="M8.09561 15.7381C7.04799 15.7381 6.19085 14.881 6.19085 13.8333C6.19085 12.7857 7.04799 11.9286 8.09561 11.9286C9.14323 11.9286 10.0004 12.7857 10.0004 13.8333C10.0004 14.881 9.14323 15.7381 8.09561 15.7381ZM13.8099 18.5952V9.07143H2.38132V18.5952H13.8099ZM13.8099 7.16667C14.8575 7.16667 15.7147 8.02381 15.7147 9.07143V18.5952C15.7147 19.6429 14.8575 20.5 13.8099 20.5H2.38132C1.33371 20.5 0.476562 19.6429 0.476562 18.5952V9.07143C0.476562 8.02381 1.33371 7.16667 2.38132 7.16667H3.33371V5.2619C3.33371 2.59524 5.42894 0.5 8.09561 0.5C10.7623 0.5 12.8575 2.59524 12.8575 5.2619V7.16667H13.8099ZM8.09561 2.40476C6.47656 2.40476 5.23847 3.64286 5.23847 5.2619V7.16667H10.9528V5.2619C10.9528 3.64286 9.71466 2.40476 8.09561 2.40476ZM19.5242 6.21429H17.6194V11.9286H19.5242V6.21429ZM19.5242 13.8333H17.6194V15.7381H19.5242V13.8333Z" fill="currentColor"/>
</svg>
