<svg width="18" height="18" viewBox="0 0 18 18" fill="none" xmlns="http://www.w3.org/2000/svg">
<path d="M17.125 16.2414L12.405 11.5214C13.5393 10.1597 14.1049 8.41316 13.9842 6.64507C13.8635 4.87699 13.0658 3.2235 11.757 2.02858C10.4483 0.833659 8.72922 0.189305 6.95748 0.229562C5.18574 0.269819 3.49773 0.991588 2.2446 2.24472C0.991466 3.49785 0.269697 5.18587 0.22944 6.95761C0.189183 8.72935 0.833537 10.4484 2.02846 11.7572C3.22338 13.0659 4.87687 13.8636 6.64495 13.9843C8.41303 14.105 10.1596 13.5394 11.5213 12.4051L16.2413 17.1251L17.125 16.2414ZM1.50001 7.12513C1.50001 6.01261 1.82991 4.92508 2.44799 4.00005C3.06608 3.07502 3.94458 2.35405 4.97242 1.92831C6.00025 1.50257 7.13125 1.39117 8.22239 1.60822C9.31354 1.82526 10.3158 2.36099 11.1025 3.14766C11.8892 3.93433 12.4249 4.93661 12.6419 6.02775C12.859 7.11889 12.7476 8.24989 12.3218 9.27773C11.8961 10.3056 11.1751 11.1841 10.2501 11.8022C9.32507 12.4202 8.23753 12.7501 7.12501 12.7501C5.63368 12.7485 4.2039 12.1553 3.14936 11.1008C2.09483 10.0462 1.50167 8.61647 1.50001 7.12513Z" fill="currentColor"/>
</svg>
