<svg width="21" height="18" viewBox="0 0 21 18" fill="none" xmlns="http://www.w3.org/2000/svg">
<path d="M14.3318 10.2859C14.4918 9.8597 14.573 9.40809 14.5714 8.953C14.5714 7.94254 14.1687 6.97347 13.4519 6.25897C12.7351 5.54447 11.7628 5.14307 10.7491 5.14307C10.2982 5.14359 9.85095 5.22447 9.42857 5.38188L10.3256 6.30382C10.462 6.28207 10.5999 6.27093 10.738 6.2705C11.4547 6.269 12.143 6.55027 12.6525 7.05286C13.1619 7.55546 13.4511 8.23856 13.457 8.953C13.4566 9.09065 13.4454 9.22806 13.4236 9.36399L14.3318 10.2859Z" fill="currentColor"/>
<path d="M20.3851 8.63956C18.2204 4.85903 14.4241 2.57129 10.2231 2.57129C9.07928 2.57383 7.94315 2.74793 6.85715 3.08709L7.89134 4.07015C8.65308 3.88418 9.43633 3.78837 10.2231 3.78494C13.8395 3.78494 17.1284 5.69038 19.0876 8.90049C18.3689 10.0915 17.4161 11.1419 16.2805 11.9953L17.1926 12.857C18.507 11.8553 19.5985 10.6179 20.4044 9.21604L20.5714 8.92477L20.3851 8.63956Z" fill="currentColor"/>
<path d="M1.55478 0.975273L4.33964 3.89455C2.57938 5.08262 1.14073 6.72596 0.162346 8.66618L0 8.97382L0.162346 9.288C2.2666 13.3658 5.95686 15.8335 10.0405 15.8335C11.6344 15.8331 13.2076 15.455 14.6424 14.7273L17.7644 18L18.8571 17.0182L2.62252 0L1.55478 0.975273ZM7.64276 7.35709L11.7951 11.7098C11.3259 12.0142 10.7858 12.1773 10.2341 12.1811C9.83314 12.1811 9.43619 12.098 9.06602 11.9366C8.69586 11.7752 8.35981 11.5386 8.07719 11.2405C7.79457 10.9424 7.57097 10.5887 7.41926 10.1997C7.26755 9.81069 7.19072 9.39407 7.19319 8.97382C7.20022 8.40211 7.35564 7.84321 7.64276 7.35709V7.35709ZM6.73737 6.408C6.15319 7.27161 5.87939 8.32405 5.96442 9.37897C6.04946 10.4339 6.48786 11.4233 7.202 12.1719C7.91613 12.9205 8.85993 13.38 9.86629 13.4692C10.8726 13.5583 11.8766 13.2713 12.7005 12.6589L13.6995 13.7062C12.543 14.2244 11.2983 14.4916 10.0405 14.4916C6.52507 14.4916 3.3281 12.4364 1.42365 8.97382C2.3376 7.27738 3.65387 5.857 5.24503 4.85018L6.73737 6.408Z" fill="currentColor"/>
</svg>
