<svg width="24" height="16" viewBox="0 0 24 16" fill="none" xmlns="http://www.w3.org/2000/svg">
<path d="M23.806 7.63723C21.291 2.87924 16.8806 0 12 0C7.1194 0 2.70149 2.87924 0.208955 7.63723L0 7.99618L0.19403 8.36277C2.70896 13.1208 7.1194 16 12 16C16.8806 16 21.2985 13.1589 23.806 8.36277L24 7.99618L23.806 7.63723ZM12 14.4344C7.79851 14.4344 3.9403 12.0363 1.70149 7.99618C3.9403 3.95609 7.79851 1.55799 12 1.55799C16.2015 1.55799 20.0149 3.96372 22.291 7.99618C20.0149 12.0363 16.194 14.4344 12 14.4344Z" fill="currentColor"/>
<path d="M11.9635 3.00013C10.9753 3.00735 10.0113 3.30726 9.19341 3.862C8.37551 4.41674 7.74035 5.20142 7.36815 6.11693C6.99595 7.03244 6.90341 8.03772 7.10221 9.00579C7.30101 9.97387 7.78224 10.8613 8.48511 11.5561C9.18799 12.2508 10.081 12.7217 11.0513 12.9092C12.0216 13.0967 13.0258 12.9924 13.9369 12.6096C14.848 12.2268 15.6252 11.5825 16.1704 10.7582C16.7156 9.93391 17.0042 8.96653 17 7.97827C16.9971 7.32042 16.8644 6.66961 16.6096 6.06312C16.3548 5.45663 15.9828 4.9064 15.5149 4.44394C15.047 3.98149 14.4925 3.61591 13.8831 3.36815C13.2737 3.12039 12.6213 2.99533 11.9635 3.00013ZM11.9635 11.5424C11.2654 11.5352 10.5851 11.3219 10.0078 10.9293C9.4306 10.5367 8.98225 9.98226 8.71908 9.33566C8.45592 8.68906 8.38968 7.97911 8.52868 7.29499C8.66769 6.61087 9.00574 5.98307 9.50037 5.49045C9.99501 4.99782 10.6242 4.66234 11.3089 4.52613C11.9936 4.38992 12.7032 4.45906 13.3487 4.72486C13.9943 4.99066 14.5468 5.44127 14.9371 6.02011C15.3274 6.59894 15.5379 7.28018 15.5422 7.97827C15.5442 8.44809 15.4528 8.91363 15.2735 9.34788C15.0941 9.78213 14.8304 10.1765 14.4975 10.508C14.1646 10.8395 13.7692 11.1017 13.3342 11.2793C12.8992 11.4568 12.4333 11.5463 11.9635 11.5424Z" fill="currentColor"/>
</svg>
