<svg xmlns="http://www.w3.org/2000/svg" viewBox="0 0 402.58 83.98"><path d="M311.43,34a33.87,33.87,0,0,0-9.21.58c-2.36.56-3.18-.38-3.13-2.66a38.39,38.39,0,0,0-.32-4.9c-.44-4.18-.45-4.13,3.61-4.51a13.71,13.71,0,0,1,10,2.95c5.16,4.13,10.47,5,16.36,1.83.57-.31,1.36-.77,1.81,0,.55.92-.46,1.3-1,1.79C324.41,33.89,318,34.22,311.43,34Z" fill="#fe8502"/><path d="M33.79,56,27.5,63V83.48H0V.5H27.5V30.61L54.77.5H85.24L52,37,86.9,83.48H54.53Z" fill="#4654b6"/><path d="M90.69.5h28v83h-28Z" fill="#4654b6"/><path d="M167.74,62.62h-7.59V83.48h-28V.5h39.95c23.11,0,37.81,12.09,37.81,31.3,0,12-5.69,21-15.64,26.08l17.42,25.6H181.85Zm2.61-40.54h-10.2V41.52h10.2c7.7,0,11.38-3.68,11.38-9.72S178.05,22.08,170.35,22.08Z" fill="#4654b6"/><path d="M370.57,83.48,356.23,61.31l-14,22.17H310.35l30-41.84L311.42.5h31.41l14.11,20.86L370.69.5H400.8L372,40.57l30.59,42.91Z" fill="#4654b6"/><path d="M333.13,4c.41-.27.87-.63,1.31-.35.6.4.31,1,.08,1.56a23,23,0,0,1-3.73,5.51,12.6,12.6,0,0,1-3.55,3c-5.53,3.12-11.66,3.5-18,3-10.72-.85-14.31,2.7-12.46,13.27,1.2,6.85.35,13.21-1.28,19.79A91.56,91.56,0,0,1,288.9,68.9c-.68,1.36-1.36,2.34-3.32,2.21a45.56,45.56,0,0,0-11.29.88c-3,.57-4.67-.08-4.94-2.91-.5-5.37-2.57-9.66-8.19-11.41-1.47-.47-1.35-1.74-1.15-2.9.41-2.35.89-4.68,1.38-7.22-7.13,6.6-5.83,22.36,2.85,35.72-2.85.52-5.55,0-8.22-.46-15.36-2.57-27.59-9.84-35.46-23.69-9.77-17.16-6.09-41.51,8.35-54.87a6,6,0,0,1,2.93-1.77c5.42-.94,10.87-2.06,16.37-1.28,7.32,1,14.68,1.37,21.88,0,8.13-1.55,15.9-.28,23.73,1.41A221.13,221.13,0,0,0,322.07,7.1C323.31,7.21,330.88,5.48,333.13,4ZM290,50c.11-2.42,1.43-4.31,1-6.46-.26-1.23,1.18-3.12-.47-3.54-1.32-.33-1.29,1.85-1.9,2.87C286.81,45.82,287.16,47.56,290,50Z" fill="#fe8502" stroke="#fff" stroke-miterlimit="10"/><path d="M290,50c-2.82-2.43-3.17-4.17-1.39-7.13.61-1,.58-3.2,1.9-2.87,1.65.42.21,2.31.47,3.54C291.41,45.68,290.09,47.57,290,50Z" fill="#fefdfc" stroke="#fff" stroke-miterlimit="10"/></svg>