<?xml version="1.0" encoding="utf-8"?><svg viewBox="0 0 47 47" xmlns="http://www.w3.org/2000/svg" xmlns:xlink="http://www.w3.org/1999/xlink"><style>:root>svg{display:none}:root>svg:target{display:block}</style><svg fill="none" viewBox="0 0 47 47" id="ic_add_banner" xmlns="http://www.w3.org/2000/svg"><circle cx="20.5" cy="20.5" r="9.5" stroke="currentColor" stroke-width="2"/><circle cx="20.5" cy="20.5" r="19.5" stroke="currentColor" stroke-width="2"/><path d="M29.038 44.871c-.404.401-1.05.16-1.05-.401L20 20l24.611 7.943c.565 0 .807.641.403 1.043l-6.616 4.573 6.778 6.739c.565.562.565 1.364 0 1.925l-2.986 2.969c-.565.562-1.372.562-1.936 0l-6.779-6.74-4.438 6.42z" fill="currentColor" stroke="#fff" stroke-width="2" stroke-linecap="round" stroke-linejoin="round"/></svg><svg fill="none" viewBox="0 0 10 6" id="ic_arrow_down" xmlns="http://www.w3.org/2000/svg"><path d="M1.428.286L5 3.857 8.57.286 10 1 5 6 0 1 1.428.286z" fill="currentColor"/></svg><svg fill="none" viewBox="0 0 9 18" id="ic_arrow_left" xmlns="http://www.w3.org/2000/svg"><path d="M9 2.85L2.857 9 9 15.303V18L0 9l9-9v2.85z" fill="currentColor"/></svg><svg fill="none" viewBox="0 0 19 19" id="ic_calendar" xmlns="http://www.w3.org/2000/svg"><path d="M18 1.688h-3.938v-1.5A.188.188 0 0 0 13.876 0h-1.313a.188.188 0 0 0-.187.188v1.5h-6v-1.5A.188.188 0 0 0 6.187 0H4.875a.188.188 0 0 0-.188.188v1.5H.75a.75.75 0 0 0-.75.75V18c0 .415.335.75.75.75H18a.75.75 0 0 0 .75-.75V2.437a.75.75 0 0 0-.75-.75zm-.938 15.374H1.688V8.156h15.376v8.906zM1.688 6.563V3.376h3V4.5c0 .103.085.188.188.188h1.313a.188.188 0 0 0 .187-.188V3.375h6V4.5c0 .103.084.188.188.188h1.312a.188.188 0 0 0 .188-.188V3.375h3v3.188H1.688z" fill="currentColor"/></svg><svg fill="none" viewBox="0 0 20 20" id="ic_check" xmlns="http://www.w3.org/2000/svg"><path d="M10 0C4.478 0 0 4.478 0 10s4.478 10 10 10 10-4.478 10-10S15.522 0 10 0zm4.32 6.734l-4.702 6.518a.71.71 0 0 1-1.154 0L5.681 9.395a.18.18 0 0 1 .145-.283h1.047a.71.71 0 0 1 .578.296l1.59 2.206 3.508-4.866a.714.714 0 0 1 .578-.297h1.047a.18.18 0 0 1 .145.283z" fill="currentColor"/></svg><svg fill="none" viewBox="0 0 18 18" id="ic_copy" xmlns="http://www.w3.org/2000/svg"><path d="M16.4 17H6.6a.6.6 0 0 1-.6-.6V6.6a.6.6 0 0 1 .6-.6h9.8a.6.6 0 0 1 .6.6v9.8a.6.6 0 0 1-.6.6z" stroke="currentColor" stroke-width="1.5" stroke-linecap="round" stroke-linejoin="round"/><path d="M12 6V1.6a.6.6 0 0 0-.6-.6H1.6a.6.6 0 0 0-.6.6v9.8a.6.6 0 0 0 .6.6H6" stroke="currentColor" stroke-width="1.5" stroke-linecap="round" stroke-linejoin="round"/></svg><svg fill="none" viewBox="0 0 18 18" id="ic_delete" xmlns="http://www.w3.org/2000/svg"><path d="M9 0C3.986 0 0 3.986 0 9c0 5.014 3.986 9 9 9 5.014 0 9-3.986 9-9 0-5.014-3.986-9-9-9zm3.471 13.5L9 10.029 5.529 13.5 4.5 12.471 7.971 9 4.5 5.529 5.529 4.5 9 7.971 12.471 4.5 13.5 5.529 10.029 9l3.471 3.471-1.029 1.029z" fill="currentColor"/></svg><svg fill="none" viewBox="0 0 20 20" id="ic_dilear" xmlns="http://www.w3.org/2000/svg"><path d="M10 0C4.478 0 0 4.478 0 10s4.478 10 10 10 10-4.478 10-10S15.522 0 10 0z" fill="currentColor"/><path d="M7 15V5h2.818c.805 0 1.524.2 2.157.598.637.393 1.134.956 1.49 1.69.357.727.535 1.556.535 2.485v.46c0 .93-.176 1.756-.528 2.48-.348.723-.841 1.284-1.478 1.683-.638.398-1.357.6-2.158.604H7zm1.887-8.331v6.676h.912c.738 0 1.302-.264 1.692-.79.39-.527.589-1.28.597-2.26v-.529c0-1.016-.193-1.785-.579-2.307-.385-.527-.95-.79-1.691-.79h-.931z" fill="#fff"/></svg><svg fill="none" viewBox="0 0 19 19" id="ic_edit" xmlns="http://www.w3.org/2000/svg"><path d="M3.415 15a.953.953 0 0 0 .14-.012l3.943-.691a.23.23 0 0 0 .124-.066l9.935-9.935a.234.234 0 0 0 0-.33L13.662.068A.232.232 0 0 0 13.495 0a.232.232 0 0 0-.166.068l-9.935 9.935a.238.238 0 0 0-.066.124l-.691 3.942a.785.785 0 0 0 .22.699c.155.15.35.232.558.232zm1.324-4.306l8.767-8.753 2.131 2.1-8.766 8.753-2.728.472.596-2.572zM18.75 16.97H0v1.593c0 .104.084.188.188.188h18.374a.188.188 0 0 0 .188-.188V16.97c-.269 0 .415 0 0 0z" fill="currentColor"/></svg><svg fill="none" viewBox="0 0 23 21" id="ic_favorite" xmlns="http://www.w3.org/2000/svg"><path d="M2.266 10.409c-2.25-3-1.5-7.5 2.25-9s6 1.5 6.75 3c.75-1.5 3.75-4.5 7.5-3s3.75 6 1.5 9-9 9-9 9-6.75-6-9-9z" stroke="currentColor" stroke-width="1.5" stroke-linecap="round" stroke-linejoin="round"/></svg><svg fill="none" viewBox="0 0 24 20" id="ic_favorite2" xmlns="http://www.w3.org/2000/svg"><path d="M22.576 3.055c.268.456.47.949.601 1.462.138.53.204 1.077.195 1.624a5.813 5.813 0 0 1-.796 2.974 5.59 5.59 0 0 1-.975 1.283L12 20l-9.602-9.602a6.174 6.174 0 0 1-.991-1.283 6.499 6.499 0 0 1-.585-1.446A6.057 6.057 0 0 1 .627 6.14a6.093 6.093 0 0 1 .195-1.624A5.768 5.768 0 0 1 2.398 1.77 6.141 6.141 0 0 1 4.363.455a6.076 6.076 0 0 1 4.615 0 6.499 6.499 0 0 1 1.884 1.219l.082.097 1.055 1.056 1.056-1.056.082-.097A6.499 6.499 0 0 1 15.02.455a6.076 6.076 0 0 1 4.614 0 6.141 6.141 0 0 1 1.966 1.316c.39.375.718.808.975 1.284z" fill="currentColor"/></svg><svg fill="none" viewBox="0 0 20 18" id="ic_filter" xmlns="http://www.w3.org/2000/svg"><path d="M0 2h20v2H0V2zM0 14h20v2H0v-2zM0 8h20v2H0V8z" fill="currentColor"/><circle cx="6" cy="3" r="2.25" fill="#fff" stroke="currentColor" stroke-width="1.5"/><circle cx="6" cy="15" r="2.25" fill="#fff" stroke="currentColor" stroke-width="1.5"/><circle cx="14" cy="9" r="2.25" fill="#fff" stroke="currentColor" stroke-width="1.5"/></svg><svg fill="none" viewBox="0 0 18 18" id="ic_fullscreen" xmlns="http://www.w3.org/2000/svg"><path d="M17 1h-6.857M17 1v6.857" stroke="currentColor" stroke-width="2" stroke-linecap="square" stroke-linejoin="round"/><path d="M8.111 9.889L17.001 1" stroke="currentColor" stroke-width="2"/><path d="M5.317 1H1v16h16v-4.318" stroke="currentColor" stroke-width="2" stroke-linecap="square"/></svg><svg fill="none" viewBox="0 0 18 16" id="ic_list" xmlns="http://www.w3.org/2000/svg"><path d="M5 1h13v2H5V1zM0 .5h3v3H0v-3zm0 6h3v3H0v-3zm0 6h3v3H0v-3zM5 7h13v2H5V7zm0 6h13v2H5v-2z" fill="currentColor"/></svg><svg fill="none" viewBox="0 0 16 16" id="ic_location" xmlns="http://www.w3.org/2000/svg"><path d="M15.504.5L.5 6.5l5.598 2.531L14.003 2 6.973 9.906l2.53 5.594 6-15z" fill="currentColor"/></svg><svg fill="none" viewBox="0 0 15 21" id="ic_location2" xmlns="http://www.w3.org/2000/svg"><path d="M7.35 9.975a2.625 2.625 0 1 1 0-5.25 2.625 2.625 0 0 1 0 5.25zM7.35 0A7.35 7.35 0 0 0 0 7.35C0 12.863 7.35 21 7.35 21s7.35-8.137 7.35-13.65A7.35 7.35 0 0 0 7.35 0z" fill="currentColor"/></svg><svg fill="none" viewBox="0 0 15 21" id="ic_location3" xmlns="http://www.w3.org/2000/svg"><path d="M4.964 9.736a3.375 3.375 0 1 0 4.773-4.773 3.375 3.375 0 0 0-4.773 4.773zM7.35 19.854a48.093 48.093 0 0 1-3.053-4.031c-.905-1.341-1.799-2.836-2.464-4.321C1.163 10.007.75 8.576.75 7.35a6.6 6.6 0 0 1 13.2 0c0 1.226-.413 2.657-1.083 4.152-.665 1.485-1.56 2.98-2.464 4.32a48.099 48.099 0 0 1-3.053 4.032z" fill="#fff" stroke="currentColor" stroke-width="1.5"/></svg><svg fill="none" viewBox="0 0 20 21" id="ic_lock" xmlns="http://www.w3.org/2000/svg"><path d="M8.096 15.738a1.91 1.91 0 0 1-1.905-1.905 1.91 1.91 0 0 1 1.905-1.904A1.91 1.91 0 0 1 10 13.833a1.91 1.91 0 0 1-1.904 1.905zm5.714 2.857V9.071H2.38v9.524H13.81zm0-11.428a1.91 1.91 0 0 1 1.905 1.904v9.524A1.91 1.91 0 0 1 13.81 20.5H2.38a1.91 1.91 0 0 1-1.904-1.905V9.071A1.91 1.91 0 0 1 2.38 7.167h.953V5.262C3.334 2.595 5.429.5 8.096.5c2.666 0 4.761 2.095 4.761 4.762v1.905h.953zM8.096 2.405c-1.62 0-2.858 1.238-2.858 2.857v1.905h5.715V5.262c0-1.62-1.238-2.857-2.857-2.857zm11.428 3.81H17.62v5.714h1.905V6.214zm0 7.618H17.62v1.905h1.905v-1.905z" fill="currentColor"/></svg><svg fill="none" viewBox="0 0 16 18" id="ic_remove" xmlns="http://www.w3.org/2000/svg"><path d="M5 0v1H0v1.59h1V16a2 2 0 0 0 2 2h10a2 2 0 0 0 2-2V2.59h1V1h-5V0H5zM2.545 2.59H13.48v13.892H2.545V2.59zM6 5v9h1.52V5H6zm2.472 0v9H10V5H8.472z" fill="currentColor"/></svg><svg fill="none" viewBox="0 0 18 18" id="ic_search" xmlns="http://www.w3.org/2000/svg"><path d="M17.125 16.241l-4.72-4.72a6.886 6.886 0 1 0-.884.884l4.72 4.72.884-.884zM1.5 7.125a5.625 5.625 0 1 1 5.625 5.625A5.631 5.631 0 0 1 1.5 7.125z" fill="currentColor"/></svg><svg fill="none" viewBox="0 0 17 16" id="ic_star" xmlns="http://www.w3.org/2000/svg"><path d="M8.411 0l-2.6 5.269-5.81.84 4.205 4.102L3.21 16l5.2-2.731 5.2 2.731-.994-5.789 4.206-4.097-5.812-.845L8.412 0z" fill="currentColor"/></svg><svg fill="none" viewBox="0 0 22 22" id="ic_star2" xmlns="http://www.w3.org/2000/svg"><path d="M11 1.677l2.996 5.992.18.359.398.05 5.915.739-4.084 4.58-.24.27.06.355 1.123 6.647-6.013-3.006-.335-.168-.335.168-6.01 3.005 1.132-6.645.06-.357-.24-.27-4.094-4.58 5.913-.738.399-.05.18-.36L11 1.678z" stroke="currentColor" stroke-width="1.5"/></svg><svg fill="none" viewBox="0 0 18 18" id="ic_stats" xmlns="http://www.w3.org/2000/svg"><path d="M17.813 15.563H1.688V.937A.188.188 0 0 0 1.5.75H.187A.188.188 0 0 0 0 .938v16.125c0 .103.084.187.188.187h17.625a.188.188 0 0 0 .187-.188V15.75a.188.188 0 0 0-.188-.188zM4.166 11.945c.073.073.19.073.265 0l3.241-3.225 2.991 3.01a.188.188 0 0 0 .265 0l6.455-6.453a.188.188 0 0 0 0-.265l-.928-.928a.188.188 0 0 0-.265 0L10.8 9.473 7.814 6.47a.188.188 0 0 0-.265 0L3.241 10.75a.188.188 0 0 0 0 .265l.926.93z" fill="currentColor"/></svg><svg fill="none" viewBox="0 0 14 14" id="ic_time" xmlns="http://www.w3.org/2000/svg"><path d="M7 14A7 7 0 1 1 7 0a7 7 0 0 1 0 14zM7 1a6 6 0 1 0 0 12A6 6 0 0 0 7 1z" fill="currentColor"/><path d="M9.295 10L6.5 7.205V2.5h1v4.29L10 9.295 9.295 10z" fill="currentColor"/></svg><svg fill="none" viewBox="0 0 18 18" id="ic_tooltip" xmlns="http://www.w3.org/2000/svg"><path d="M9 0C4.037 0 0 4.037 0 9s4.037 9 9 9 9-4.037 9-9-4.037-9-9-9zm.9 13.5H8.1V8.1h1.8v5.4zm0-7.2H8.1V4.5h1.8v1.8z" fill="currentColor"/></svg><svg fill="none" viewBox="0 0 18 17" id="ic_upload" xmlns="http://www.w3.org/2000/svg"><path d="M8.618 11.742a.188.188 0 0 0 .295 0l2.625-3.32a.187.187 0 0 0-.147-.303H9.654V.188A.188.188 0 0 0 9.466 0H8.06a.188.188 0 0 0-.187.188v7.928H6.14a.187.187 0 0 0-.148.303l2.625 3.323zm8.726-.82h-1.407a.188.188 0 0 0-.187.187v3.61H1.781v-3.61a.188.188 0 0 0-.187-.187H.187a.188.188 0 0 0-.187.187v4.641c0 .415.335.75.75.75h16.031a.75.75 0 0 0 .75-.75v-4.64a.188.188 0 0 0-.187-.188z" fill="#141414"/></svg><svg fill="none" viewBox="0 0 18 20" id="ic_user" xmlns="http://www.w3.org/2000/svg"><path d="M17.12 15.897a8.767 8.767 0 0 0-1.888-2.8 8.804 8.804 0 0 0-2.801-1.89c-.01-.005-.019-.007-.028-.012A5.812 5.812 0 0 0 9 .672a5.811 5.811 0 0 0-3.404 10.526l-.028.011a8.727 8.727 0 0 0-2.8 1.89 8.804 8.804 0 0 0-1.89 2.8 8.712 8.712 0 0 0-.69 3.237.187.187 0 0 0 .187.192H1.78a.187.187 0 0 0 .187-.183 6.988 6.988 0 0 1 2.058-4.788A6.985 6.985 0 0 1 9 12.297c1.88 0 3.644.731 4.973 2.06a6.988 6.988 0 0 1 2.058 4.788.186.186 0 0 0 .187.183h1.407a.188.188 0 0 0 .187-.192 8.736 8.736 0 0 0-.691-3.24zM9 10.516a4.005 4.005 0 0 1-2.85-1.182 4.005 4.005 0 0 1-1.182-2.85c0-1.075.42-2.088 1.182-2.85A4.005 4.005 0 0 1 9 2.454c1.075 0 2.088.419 2.85 1.18a4.005 4.005 0 0 1 1.18 2.85c0 1.076-.419 2.089-1.18 2.85A4.005 4.005 0 0 1 9 10.516z" fill="currentColor"/></svg><svg fill="none" viewBox="0 0 4 16" id="ic_vert_points" xmlns="http://www.w3.org/2000/svg"><path d="M2 4a2 2 0 1 0 0-4 2 2 0 0 0 0 4zM2 10a2 2 0 1 0 0-4 2 2 0 0 0 0 4zM2 16a2 2 0 1 0 0-4 2 2 0 0 0 0 4z" fill="currentColor"/></svg><svg fill="none" viewBox="0 0 24 16" id="ic_views" xmlns="http://www.w3.org/2000/svg"><path d="M23.806 7.637C21.291 2.88 16.881 0 12 0 7.12 0 2.701 2.88.209 7.637L0 7.997l.194.366C2.709 13.12 7.119 16 12 16c4.88 0 9.299-2.841 11.806-7.637L24 7.996l-.194-.359zM12 14.434c-4.201 0-8.06-2.398-10.299-6.438C3.941 3.956 7.8 1.558 12 1.558s8.015 2.406 10.291 6.438c-2.276 4.04-6.097 6.438-10.291 6.438z" fill="currentColor"/><path d="M11.963 3a5 5 0 1 0 .074 10 5 5 0 0 0-.074-10zm0 8.542a3.543 3.543 0 1 1 3.31-2.194 3.55 3.55 0 0 1-3.31 2.194z" fill="currentColor"/></svg><svg fill="none" viewBox="0 0 21 18" id="ic_views_no" xmlns="http://www.w3.org/2000/svg"><path d="M14.332 10.286a3.804 3.804 0 0 0-.88-4.027 3.829 3.829 0 0 0-2.703-1.116c-.45 0-.898.081-1.32.239l.897.922a2.718 2.718 0 0 1 2.327.749 2.7 2.7 0 0 1 .804 1.9c0 .138-.012.275-.033.411l.908.922z" fill="currentColor"/><path d="M20.385 8.64C18.22 4.859 14.425 2.57 10.223 2.57c-1.144.003-2.28.177-3.366.516l1.034.983a10.02 10.02 0 0 1 2.332-.285c3.616 0 6.905 1.905 8.865 5.115a10.965 10.965 0 0 1-2.808 3.095l.913.862a12.283 12.283 0 0 0 3.211-3.641l.167-.291-.186-.285zM1.555.975l2.785 2.92A12.573 12.573 0 0 0 .162 8.666L0 8.974l.162.314c2.105 4.078 5.795 6.546 9.879 6.546 1.593 0 3.167-.379 4.601-1.107L17.764 18l1.093-.982L2.623 0 1.555.975zm6.088 6.382l4.152 4.353c-.47.304-1.01.467-1.56.471a2.92 2.92 0 0 1-1.169-.244 3.036 3.036 0 0 1-.989-.696A3.204 3.204 0 0 1 7.42 10.2a3.26 3.26 0 0 1 .223-2.843zm-.906-.949a4.645 4.645 0 0 0-.773 2.971 4.58 4.58 0 0 0 1.238 2.793 4.196 4.196 0 0 0 2.664 1.297 4.133 4.133 0 0 0 2.835-.81l.998 1.047a8.942 8.942 0 0 1-3.659.786c-3.515 0-6.712-2.056-8.616-5.518A11.093 11.093 0 0 1 5.245 4.85l1.492 1.558z" fill="currentColor"/></svg></svg>